<svg id="레이어_1" data-name="레이어 1" xmlns="http://www.w3.org/2000/svg" xmlns:xlink="http://www.w3.org/1999/xlink" viewBox="0 0 952.5 294.73"><defs><style>.cls-1{fill:url(#무제_그라디언트_2);}.cls-2{fill:#e5ff78;}</style><linearGradient id="무제_그라디언트_2" x1="476.25" x2="476.25" y2="294.73" gradientUnits="userSpaceOnUse"><stop offset="0" stop-color="#a5e039"/><stop offset="0.15" stop-color="#85d93b"/><stop offset="0.44" stop-color="#4ccc3f"/><stop offset="0.69" stop-color="#23c242"/><stop offset="0.88" stop-color="#09bc44"/><stop offset="1" stop-color="#00ba45"/></linearGradient></defs><path class="cls-1" d="M848.7,9.67c0-7.5-1,8.53-2.7,6.51-1.71,10.63-4.16,16.44-7.1,17.19-2.94,10.45-6.37,24.35-10,24.29-3.67,14.69-7.59,19.89-11.51,27.85-3.92,16.17-7.84,29.78-11.51,27.85-3.68,4.23-7.11,7.63-10.05,24.3-2.94,10-5.39,25.56-7.1,17.18-1.72,2.58-2.7,2.63-2.7,6.52,0,2.42-1.37.81-3.67-8.88-2.29-6.19-5.51-18.58-9.18-22.21-3.67-18.47-7.8-15.54-11.93-28.86-4.13-7.94-8.27-13.62-11.94-28.87-3.67-9.32-6.88-9.42-9.18-22.21-2.29,2.39-3.67,0-3.67-8.88,0-5.78-.81-1-2.27,5.82-1.46-3.65-3.56,15.36-6.16,15.79-2.59,14-5.67,16.92-9.07,23.26-3.41,14.44-7.14,6.85-11,28.25-3.89,11.41-7.95,26.22-12,30.75-4,14.26-8.1,16.36-12,30.74-3.89,17.15-7.62,17.73-11,28.25-3.41,4.17-6.49,28.19-9.08,23.27-2.59,3.26-4.7-19-6.16,15.78-1.46,23.81-2.27,17-2.27,5.82,0-11.46-1-5.28-2.8-5.82-1.8,18.51-4.4-22.5-7.6-15.78-3.2-13.83-7-38-11.2-23.27-4.2-7.64-8.8-19-13.6-28.25-4.8-14.7-9.8-20.66-14.8-30.74-5,.16-10-27.44-14.8-30.75-4.8-7.64-9.4-26.23-13.6-28.25-4.2-4.07-8-24.71-11.2-23.26-3.2-13.7-5.8-10.26-7.6-15.79-1.8-8.65-2.8,1.3-2.8-5.82,0-11.49-1.39-3.89-3.6,8.72-2.22.84-5.27,29.22-8.59,20.78-3.33,9.88-6.93,34.39-10.26,24.8-3.32.36-6.37,10.83-8.59,20.78-2.22,15.84-3.6,17.58-3.6,8.72,0,2.25-1.81-23.5-4.52-10.94-2.72-5.67-6.33-25.3-10-24C502.65,69.94,499,72,496.32,66.2c-2.71-8.79-4.52-13.68-4.52-10.93,0-2.1-1.61,1.72-4.18,10.11-2.57,5.9-6.11,11-10,24.1-3.85,17.78-8,29.86-11.89,28.77-3.86,6.56-7.39,16-10,24.1-2.57,5.6-4.18,8.7-4.18,10.11,0-6.34-1.7-8.15-4.41-10.66-2.71-6.19-6.44-7.23-10.51-25.43-4.07-6-8.48-7.76-12.55-30.36-4.07-19.17-7.8-17-10.52-25.43-2.71-10.6-4.41-19.06-4.41-10.66,0-7.44-1-3.86-2.82,6.84-1.8-12.94-4.37-1.31-7.46,18-3.08,18.13-6.68,23.41-10.54,25.5-3.86,2.27-8,26.75-12.08,29.23-4.12,2-8.23,25.17-12.09,29.23-3.85,29.44-7.45,5.35-10.54,25.49-3.08,2.3-5.66,1.61-7.45,18-1.8,8.81-2.83,4.62-2.83,6.84,0,11.48-1,8.38-2.83-6.84-1.8-4.46-4.37-14.31-7.46-18-3.08,3.5-6.68-22.52-10.54-25.49-3.85-1.4-8-17.46-12.08-29.23-4.12-8.32-8.23-6.56-12.09-29.23-3.85-10.36-7.45,15.24-10.54-25.5-3.08-12.84-5.65-17.72-7.45-18-1.8,1.26-2.83,0-2.83-6.84,0-3.66-1.42,16.31-3.69,8.91-2.27,14.08-5.39,25.31-8.79,21.27-3.4,19.83-7.09,13.56-10.49,25.38-3.4,27.69-6.52,8.52-8.79,21.27-2.27,7.36-3.69,3.93-3.69,8.91,0-1.88-1.13,14.1-3.08-7.44-1.94-1.55-4.7-21.21-7.94-19.21a150.59,150.59,0,0,1-10.86-26.27c-3.89-14.92-7.94-13.9-11.83-28.62-3.89-26.79-7.62-6.37-10.86-26.26-3.24,10-6-9.76-7.94-19.21-1.94,6.28-3.08-13.61-3.08-7.45,0-3.45-1.38,11.14-3.68,8.9-2.3,15.29-5.52,28.55-9.2,22.26-3.68,18.49-7.82,22.87-12,28.94-4.14,1-8.28,12.89-12,28.94-3.68,13.71-6.9,9.19-9.2,22.26-2.3-6.63-3.68,13.16-3.68,8.9,0-1.28-2.07-10-5.17-12.49-3.1-17.87-7.23-13-11.36-27.48-4.13,3.74-8.26-35.22-11.36-27.49-3.1-15.19-5.17-9.39-5.17-12.49,0-4.29-.72-6.25-2,5-1.32,15.07-3.24,17.79-5.64,13.81-2.41-7.4-5.29,1.82-8.53,20.85-3.25-7.79-6.85,38.11-10.7,26.14-3.84,21.63-7.93,32.2-12.13,29.66-4.21,8.81-8.53,28.49-12.86,31.43-4.32,15.9-8.65,32.16-12.85,31.42-4.21,29.79-8.29,39.47-12.14,29.66-3.84,12.46-7.45,22.25-10.69,26.14-3.24.4-6.13,13.74-8.53,20.85C5.29,281.86,0,294.73,0,294.73s952.5-4.2,952.5,0c0-1-4.53-12.19-6.61-17.72-2.08,5.37-4.59-29.74-7.42-20.41-2.84-14.9-6-17.12-9.4-25.86-3.41-22.86-7-23.81-10.82-29.76-3.78-12.44-7.71-27.47-11.67-32.11-4-18.78-8-24.71-12-32.88-4-13.56-7.89-28.14-11.67-32.1-3.78,1.27-7.42-23-10.82-29.76-3.4-.35-6.57-9.73-9.4-25.86-2.84-18.47-5.34-15.56-7.42-20.41s-3.73,2.76-4.87-13.39C849.31,8.65,848.7,8.49,848.7,9.67Z"/><circle class="cls-2" cx="112.49" cy="219.7" r="7.5"/><circle class="cls-2" cx="187.49" cy="147.7" r="7.5"/><circle class="cls-2" cx="195.49" cy="195.7" r="7.5"/><circle class="cls-2" cx="241.49" cy="171.7" r="7.5"/><circle class="cls-2" cx="187.49" cy="82.7" r="7.5"/><circle class="cls-2" cx="274.49" cy="164.7" r="7.5"/><circle class="cls-2" cx="282.49" cy="234.7" r="7.5"/><circle class="cls-2" cx="403.49" cy="163.7" r="7.5"/><circle class="cls-2" cx="435.49" cy="219.7" r="7.5"/><circle class="cls-2" cx="379.49" cy="227.7" r="7.5"/><circle class="cls-2" cx="496.49" cy="127.7" r="7.5"/><circle class="cls-2" cx="562.49" cy="147.7" r="7.5"/><circle class="cls-2" cx="511.49" cy="195.7" r="7.5"/><circle class="cls-2" cx="585.49" cy="185.7" r="7.5"/><circle class="cls-2" cx="570.49" cy="108.7" r="7.5"/><circle class="cls-2" cx="740.49" cy="227.7" r="7.5"/><circle class="cls-2" cx="732.49" cy="156.7" r="7.5"/><circle class="cls-2" cx="774.49" cy="157.7" r="7.5"/><circle class="cls-2" cx="807.49" cy="235.7" r="7.5"/><circle class="cls-2" cx="903.49" cy="235.7" r="7.5"/><circle class="cls-2" cx="846.49" cy="178.7" r="7.5"/><circle class="cls-2" cx="854.49" cy="220.7" r="7.5"/><circle class="cls-2" cx="862.49" cy="108.7" r="7.5"/><circle class="cls-2" cx="739.49" cy="108.7" r="7.5"/><circle class="cls-2" cx="701.49" cy="212.7" r="7.5"/><circle class="cls-2" cx="76.49" cy="171.7" r="7.5"/><circle class="cls-2" cx="112.49" cy="139.7" r="7.5"/></svg>